<svg width="27" height="27" viewBox="0 0 27 27" fill="none" xmlns="http://www.w3.org/2000/svg">
<path d="M25.0467 25.0467L17.4333 17.4333L25.0467 25.0467ZM19.9711 11.0888C19.9711 12.2552 19.7413 13.4103 19.295 14.4879C18.8486 15.5656 18.1943 16.5447 17.3695 17.3695C16.5447 18.1943 15.5656 18.8486 14.4879 19.295C13.4103 19.7413 12.2552 19.9711 11.0888 19.9711C9.92238 19.9711 8.76736 19.7413 7.68972 19.295C6.61207 18.8486 5.63289 18.1943 4.8081 17.3695C3.9833 16.5447 3.32904 15.5656 2.88267 14.4879C2.43629 13.4103 2.20654 12.2552 2.20654 11.0888C2.20654 8.73309 3.14235 6.47385 4.8081 4.8081C6.47385 3.14235 8.73309 2.20654 11.0888 2.20654C13.4445 2.20654 15.7038 3.14235 17.3695 4.8081C19.0353 6.47385 19.9711 8.73309 19.9711 11.0888Z" stroke="#3761A8" stroke-width="2.53779" stroke-linecap="round" stroke-linejoin="round"/>
</svg>
